<mxfile host="Electron" agent="Mozilla/5.0 (Windows NT 10.0; Win64; x64) AppleWebKit/537.36 (KHTML, like Gecko) draw.io/27.0.5 Chrome/134.0.6998.205 Electron/35.3.0 Safari/537.36" version="27.0.5">
  <diagram name="Page-1" id="h1fZJ96Ti8Orqv0g937v">
    <mxGraphModel dx="1213" dy="756" grid="1" gridSize="10" guides="1" tooltips="1" connect="1" arrows="1" fold="1" page="1" pageScale="1" pageWidth="850" pageHeight="1100" math="0" shadow="0">
      <root>
        <mxCell id="0" />
        <mxCell id="1" parent="0" />
        <mxCell id="oWsjLQgu1n_8Os-_sJrJ-4" value="" style="rounded=0;whiteSpace=wrap;html=1;" parent="1" vertex="1">
          <mxGeometry x="190" y="70" width="300" height="610" as="geometry" />
        </mxCell>
        <mxCell id="oWsjLQgu1n_8Os-_sJrJ-5" value="Course registration system" style="rounded=1;whiteSpace=wrap;html=1;" parent="1" vertex="1">
          <mxGeometry x="190" y="70" width="140" height="30" as="geometry" />
        </mxCell>
        <mxCell id="oWsjLQgu1n_8Os-_sJrJ-18" style="edgeStyle=orthogonalEdgeStyle;rounded=0;orthogonalLoop=1;jettySize=auto;html=1;exitX=1;exitY=0.3333333333333333;exitDx=0;exitDy=0;exitPerimeter=0;entryX=0;entryY=0.5;entryDx=0;entryDy=0;endArrow=none;startFill=0;" parent="1" source="oWsjLQgu1n_8Os-_sJrJ-6" target="oWsjLQgu1n_8Os-_sJrJ-13" edge="1">
          <mxGeometry relative="1" as="geometry">
            <Array as="points">
              <mxPoint x="110" y="203" />
              <mxPoint x="110" y="335" />
            </Array>
          </mxGeometry>
        </mxCell>
        <mxCell id="oWsjLQgu1n_8Os-_sJrJ-23" style="edgeStyle=orthogonalEdgeStyle;rounded=0;orthogonalLoop=1;jettySize=auto;html=1;exitX=0;exitY=1;exitDx=0;exitDy=0;exitPerimeter=0;entryX=0;entryY=1;entryDx=0;entryDy=0;endArrow=none;startFill=0;" parent="1" source="oWsjLQgu1n_8Os-_sJrJ-6" target="oWsjLQgu1n_8Os-_sJrJ-14" edge="1">
          <mxGeometry relative="1" as="geometry">
            <Array as="points">
              <mxPoint x="30" y="270" />
              <mxPoint x="30" y="608" />
            </Array>
          </mxGeometry>
        </mxCell>
        <mxCell id="oWsjLQgu1n_8Os-_sJrJ-6" value="Admin" style="shape=umlActor;verticalLabelPosition=bottom;verticalAlign=top;html=1;outlineConnect=0;" parent="1" vertex="1">
          <mxGeometry x="50" y="170" width="50" height="100" as="geometry" />
        </mxCell>
        <mxCell id="oWsjLQgu1n_8Os-_sJrJ-17" style="edgeStyle=orthogonalEdgeStyle;rounded=0;orthogonalLoop=1;jettySize=auto;html=1;exitX=1;exitY=0.3333333333333333;exitDx=0;exitDy=0;exitPerimeter=0;entryX=0;entryY=0.5;entryDx=0;entryDy=0;endArrow=none;startFill=0;" parent="1" source="oWsjLQgu1n_8Os-_sJrJ-7" target="oWsjLQgu1n_8Os-_sJrJ-12" edge="1">
          <mxGeometry relative="1" as="geometry">
            <Array as="points">
              <mxPoint x="170" y="443" />
              <mxPoint x="170" y="185" />
            </Array>
          </mxGeometry>
        </mxCell>
        <mxCell id="oWsjLQgu1n_8Os-_sJrJ-7" value="USer" style="shape=umlActor;verticalLabelPosition=bottom;verticalAlign=top;html=1;outlineConnect=0;" parent="1" vertex="1">
          <mxGeometry x="50" y="410" width="50" height="100" as="geometry" />
        </mxCell>
        <mxCell id="oWsjLQgu1n_8Os-_sJrJ-12" value="Manage Authentication&amp;nbsp;" style="ellipse;whiteSpace=wrap;html=1;" parent="1" vertex="1">
          <mxGeometry x="300" y="150" width="110" height="70" as="geometry" />
        </mxCell>
        <mxCell id="oWsjLQgu1n_8Os-_sJrJ-13" value="Manage&amp;nbsp;&lt;div&gt;Courses&amp;nbsp;&lt;/div&gt;" style="ellipse;whiteSpace=wrap;html=1;" parent="1" vertex="1">
          <mxGeometry x="300" y="300" width="115" height="70" as="geometry" />
        </mxCell>
        <mxCell id="oWsjLQgu1n_8Os-_sJrJ-14" value="Manage Payment" style="ellipse;whiteSpace=wrap;html=1;" parent="1" vertex="1">
          <mxGeometry x="305" y="540" width="120" height="80" as="geometry" />
        </mxCell>
        <mxCell id="oWsjLQgu1n_8Os-_sJrJ-15" value="manage user details&amp;nbsp;" style="ellipse;whiteSpace=wrap;html=1;" parent="1" vertex="1">
          <mxGeometry x="310" y="420" width="120" height="80" as="geometry" />
        </mxCell>
        <mxCell id="oWsjLQgu1n_8Os-_sJrJ-16" style="edgeStyle=orthogonalEdgeStyle;rounded=0;orthogonalLoop=1;jettySize=auto;html=1;exitX=0.5;exitY=0.5;exitDx=0;exitDy=0;exitPerimeter=0;entryX=0.027;entryY=0.667;entryDx=0;entryDy=0;entryPerimeter=0;endArrow=none;startFill=0;" parent="1" source="oWsjLQgu1n_8Os-_sJrJ-6" target="oWsjLQgu1n_8Os-_sJrJ-12" edge="1">
          <mxGeometry relative="1" as="geometry">
            <Array as="points">
              <mxPoint x="75" y="230" />
              <mxPoint x="303" y="230" />
            </Array>
          </mxGeometry>
        </mxCell>
        <mxCell id="oWsjLQgu1n_8Os-_sJrJ-19" style="edgeStyle=orthogonalEdgeStyle;rounded=0;orthogonalLoop=1;jettySize=auto;html=1;exitX=0.75;exitY=0.1;exitDx=0;exitDy=0;exitPerimeter=0;entryX=0.061;entryY=0.648;entryDx=0;entryDy=0;entryPerimeter=0;endArrow=none;startFill=0;" parent="1" source="oWsjLQgu1n_8Os-_sJrJ-7" target="oWsjLQgu1n_8Os-_sJrJ-13" edge="1">
          <mxGeometry relative="1" as="geometry" />
        </mxCell>
        <mxCell id="oWsjLQgu1n_8Os-_sJrJ-20" style="edgeStyle=orthogonalEdgeStyle;rounded=0;orthogonalLoop=1;jettySize=auto;html=1;entryX=0.003;entryY=0.675;entryDx=0;entryDy=0;entryPerimeter=0;endArrow=none;startFill=0;" parent="1" source="oWsjLQgu1n_8Os-_sJrJ-6" target="oWsjLQgu1n_8Os-_sJrJ-15" edge="1">
          <mxGeometry relative="1" as="geometry">
            <Array as="points">
              <mxPoint x="250" y="220" />
              <mxPoint x="250" y="474" />
            </Array>
          </mxGeometry>
        </mxCell>
        <mxCell id="oWsjLQgu1n_8Os-_sJrJ-21" style="edgeStyle=orthogonalEdgeStyle;rounded=0;orthogonalLoop=1;jettySize=auto;html=1;exitX=1;exitY=1;exitDx=0;exitDy=0;exitPerimeter=0;entryX=0.044;entryY=0.65;entryDx=0;entryDy=0;entryPerimeter=0;endArrow=none;startFill=0;" parent="1" source="oWsjLQgu1n_8Os-_sJrJ-7" target="oWsjLQgu1n_8Os-_sJrJ-14" edge="1">
          <mxGeometry relative="1" as="geometry">
            <Array as="points">
              <mxPoint x="100" y="530" />
              <mxPoint x="203" y="530" />
              <mxPoint x="203" y="570" />
              <mxPoint x="310" y="570" />
            </Array>
          </mxGeometry>
        </mxCell>
        <mxCell id="USsWTnfCRRfZRoTEQXKX-2" value="&amp;lt;&amp;lt;iclude&amp;gt;&amp;gt;" style="text;html=1;align=center;verticalAlign=middle;whiteSpace=wrap;rounded=0;" vertex="1" parent="1">
          <mxGeometry x="290" y="250" width="60" height="30" as="geometry" />
        </mxCell>
        <mxCell id="USsWTnfCRRfZRoTEQXKX-3" value="" style="html=1;verticalAlign=bottom;labelBackgroundColor=none;endArrow=open;endFill=0;dashed=1;rounded=0;exitX=0.5;exitY=0;exitDx=0;exitDy=0;entryX=0.5;entryY=1;entryDx=0;entryDy=0;" edge="1" parent="1" source="oWsjLQgu1n_8Os-_sJrJ-13" target="oWsjLQgu1n_8Os-_sJrJ-12">
          <mxGeometry width="160" relative="1" as="geometry">
            <mxPoint x="220" y="219" as="sourcePoint" />
            <mxPoint x="380" y="219" as="targetPoint" />
          </mxGeometry>
        </mxCell>
        <mxCell id="USsWTnfCRRfZRoTEQXKX-7" value="" style="html=1;verticalAlign=bottom;labelBackgroundColor=none;endArrow=open;endFill=0;dashed=1;rounded=0;exitX=0.5;exitY=0;exitDx=0;exitDy=0;entryX=1;entryY=0.5;entryDx=0;entryDy=0;" edge="1" parent="1" target="oWsjLQgu1n_8Os-_sJrJ-12">
          <mxGeometry width="160" relative="1" as="geometry">
            <mxPoint x="425" y="450" as="sourcePoint" />
            <mxPoint x="422" y="370" as="targetPoint" />
          </mxGeometry>
        </mxCell>
        <mxCell id="USsWTnfCRRfZRoTEQXKX-8" value="&amp;lt;&amp;lt;iclude&amp;gt;&amp;gt;" style="text;html=1;align=center;verticalAlign=middle;whiteSpace=wrap;rounded=0;" vertex="1" parent="1">
          <mxGeometry x="370" y="270" width="60" height="30" as="geometry" />
        </mxCell>
        <mxCell id="USsWTnfCRRfZRoTEQXKX-9" value="&amp;lt;&amp;lt;iclude&amp;gt;&amp;gt;" style="text;html=1;align=center;verticalAlign=middle;whiteSpace=wrap;rounded=0;" vertex="1" parent="1">
          <mxGeometry x="380" y="510" width="60" height="30" as="geometry" />
        </mxCell>
        <mxCell id="USsWTnfCRRfZRoTEQXKX-10" value="" style="html=1;verticalAlign=bottom;labelBackgroundColor=none;endArrow=open;endFill=0;dashed=1;rounded=0;exitX=0.5;exitY=0;exitDx=0;exitDy=0;" edge="1" parent="1">
          <mxGeometry width="160" relative="1" as="geometry">
            <mxPoint x="425" y="575" as="sourcePoint" />
            <mxPoint x="410" y="180" as="targetPoint" />
            <Array as="points">
              <mxPoint x="470" y="440" />
            </Array>
          </mxGeometry>
        </mxCell>
        <mxCell id="USsWTnfCRRfZRoTEQXKX-16" value="" style="html=1;verticalAlign=bottom;labelBackgroundColor=none;endArrow=open;endFill=0;dashed=1;rounded=0;exitX=0.409;exitY=0.981;exitDx=0;exitDy=0;entryX=0.347;entryY=0.05;entryDx=0;entryDy=0;exitPerimeter=0;entryPerimeter=0;" edge="1" parent="1" source="oWsjLQgu1n_8Os-_sJrJ-13" target="oWsjLQgu1n_8Os-_sJrJ-15">
          <mxGeometry width="160" relative="1" as="geometry">
            <mxPoint x="383" y="430" as="sourcePoint" />
            <mxPoint x="380" y="350" as="targetPoint" />
          </mxGeometry>
        </mxCell>
        <mxCell id="USsWTnfCRRfZRoTEQXKX-17" value="&amp;lt;&amp;lt;extend&amp;gt;&amp;gt;" style="text;html=1;align=center;verticalAlign=middle;whiteSpace=wrap;rounded=0;" vertex="1" parent="1">
          <mxGeometry x="355" y="380" width="60" height="30" as="geometry" />
        </mxCell>
      </root>
    </mxGraphModel>
  </diagram>
</mxfile>
